<svg width="47" height="60" viewBox="0 0 47 60" fill="none" xmlns="http://www.w3.org/2000/svg">
<path d="M23.1824 0C10.4012 0 0 9.95285 0 22.1832C0 45.7565 23.1824 59.1551 23.1824 59.1551C23.1824 59.1551 46.3648 45.7491 46.3648 22.1832C46.3648 9.95285 35.9636 0 23.1824 0ZM23.1824 33.2748C21.6597 33.2743 20.152 32.9868 18.7455 32.4288C17.3389 31.8707 16.0609 31.053 14.9846 30.0224C13.9082 28.9918 13.0546 27.7684 12.4723 26.422C11.8901 25.0757 11.5907 23.6328 11.5912 22.1758C11.5917 20.7187 11.8921 19.276 12.4753 17.9301C13.0585 16.5841 13.913 15.3613 14.9901 14.3313C16.0671 13.3014 17.3456 12.4845 18.7526 11.9274C20.1596 11.3702 21.6674 11.0837 23.1901 11.0842C26.2653 11.0852 29.2142 12.2551 31.388 14.3365C33.5617 16.418 34.7824 19.2405 34.7813 22.1832C34.7803 25.1258 33.5577 27.9476 31.3825 30.0276C29.2073 32.1077 26.2576 33.2757 23.1824 33.2748Z" fill="#2086CF"/>
</svg>
