<svg width="1560" height="641" viewBox="0 0 1560 641" fill="none" xmlns="http://www.w3.org/2000/svg">
<g style="mix-blend-mode:soft-light" opacity="0.15">
<path fill-rule="evenodd" clip-rule="evenodd" d="M994.758 627.801H1047.18V148.504H994.758V627.801Z" fill="white"/>
<path fill-rule="evenodd" clip-rule="evenodd" d="M971.635 575.379H913.089C883.156 575.379 882.47 568.569 882.47 537.263V148.504H829.361V537.263C829.361 561.759 829.361 580.817 846.36 603.306C859.981 622.364 883.103 627.801 913.089 627.801H971.635V575.379Z" fill="white"/>
<path fill-rule="evenodd" clip-rule="evenodd" d="M318.07 148.504V548.138C318.07 630.652 377.989 640.155 403.171 640.155C425.66 640.155 448.783 631.972 464.462 616.187C486.265 594.384 488.271 567.83 488.271 548.086V148.451H435.849V548.086C435.849 556.955 435.849 587.574 402.485 587.574C370.493 587.574 370.493 554.896 370.493 548.086V148.451H318.07V148.504Z" fill="white"/>
<path fill-rule="evenodd" clip-rule="evenodd" d="M1389.8 627.907V228.272C1389.8 145.758 1449.72 136.256 1474.9 136.256C1497.39 136.256 1520.51 144.439 1536.19 160.223C1557.99 182.026 1560 208.581 1560 228.325V627.959H1507.58V228.325C1507.58 219.456 1507.58 188.837 1474.21 188.837C1442.22 188.837 1442.22 221.515 1442.22 228.325V627.959H1389.8V627.907Z" fill="white"/>
<path fill-rule="evenodd" clip-rule="evenodd" d="M0 510.287L30.7249 559.33H75.6508V627.801H128.073V559.33H195.488V627.801H247.911V148.504H195.488V510.287H128.126V148.504H75.7036V510.287H0Z" fill="white"/>
<path fill-rule="evenodd" clip-rule="evenodd" d="M520.158 510.286L550.936 559.33H595.862V627.801H648.284V559.33H712.268V627.801H764.69V232.918C764.69 212.487 764.69 191.371 745.632 164.816C725.888 138.948 693.896 136.203 680.962 136.203C643.533 136.203 595.862 160.065 595.862 232.865V510.234H520.158V510.286ZM648.231 510.286V232.918C648.231 217.239 648.231 188.678 680.223 188.678C712.215 188.678 712.215 216.605 712.215 232.918V510.286H648.231Z" fill="white"/>
<path fill-rule="evenodd" clip-rule="evenodd" d="M1075 510.286L1105.78 559.33H1150.71V627.801H1203.13V559.33H1267.11V627.801H1319.53V232.918C1319.53 212.487 1319.53 191.371 1300.48 164.816C1280.73 138.948 1248.74 136.203 1235.81 136.203C1198.38 136.203 1150.71 160.065 1150.71 232.865V510.234H1075V510.286ZM1203.13 510.286V232.918C1203.13 217.239 1203.13 188.678 1235.12 188.678C1267.11 188.678 1267.11 216.605 1267.11 232.918V510.286H1203.13Z" fill="white"/>
<path fill-rule="evenodd" clip-rule="evenodd" d="M953.527 67.468L1021 0L1088.46 67.468L1021 134.936L953.527 67.468Z" fill="white"/>
</g>
</svg>
