<svg width="17" height="17" viewBox="0 0 17 17" fill="none" xmlns="http://www.w3.org/2000/svg">
<path fill-rule="evenodd" clip-rule="evenodd" d="M11.3412 5.08821L3.34938 8.31573C3.34938 8.31573 2.97291 8.45056 3.00156 8.69494C3.0302 8.93932 3.3412 9.05309 3.3412 9.05309L5.3504 9.74831L10.179 6.59242C10.179 6.59242 10.4573 6.41967 10.4491 6.59242C10.4491 6.59242 10.4982 6.62191 10.3509 6.76517C10.2036 6.90843 6.55756 10.2792 6.55756 10.2792L6.55347 10.3256L6.54528 10.3171L6.29566 12.584C6.40615 12.6345 6.50845 12.5545 6.50845 12.5545L7.80973 11.3368L9.8353 12.9337C10.3836 13.1781 10.5801 12.6682 10.5801 12.6682L12 5.28203C12 4.79327 11.3412 5.08821 11.3412 5.08821Z" fill="#50575B"/>
<circle cx="8.5" cy="8.5" r="8" stroke="#50575B"/>
</svg>
