<svg width="18" height="19" viewBox="0 0 18 19" fill="none" xmlns="http://www.w3.org/2000/svg">
<path d="M12.8121 10.7007C12.8121 10.7007 11.4938 10.0149 11.2215 9.87862C10.9493 9.74643 10.8132 9.96124 10.8132 9.96124C10.8132 9.96124 10.4126 10.5065 10.2843 10.6841C10.156 10.8618 10.0821 11.0188 9.74764 10.9031C9.41319 10.7833 8.74041 10.395 8.19207 9.86623C7.64373 9.33748 7.22372 8.63522 7.10317 8.42455C6.98261 8.21387 7.12261 8.07755 7.12261 8.07755C7.12261 8.07755 7.47261 7.64794 7.63595 7.41661C7.80317 7.18528 7.69817 6.92916 7.65928 6.82176C7.62039 6.71848 7.08372 5.36768 7.00594 5.17766C6.92816 4.98764 6.75705 4.95459 6.75705 4.95459C6.75705 4.95459 6.23593 4.95459 6.12316 4.95459C6.01038 4.95459 5.7926 5.1033 5.7926 5.1033C5.13926 5.55357 5.03037 6.59869 5.01092 6.82589C4.99148 7.05309 4.97203 7.53227 5.31815 8.3378C5.66037 9.14745 6.50038 10.2421 7.53873 11.2831C8.57707 12.3241 10.1676 12.7703 10.6499 12.9148C11.1321 13.0594 12.1471 12.8033 12.6254 12.2498C13.1038 11.6962 12.9949 11.1179 12.9832 10.9237C12.9716 10.7296 12.8121 10.7007 12.8121 10.7007Z" fill="#50575B"/>
<path d="M2.57132 13.7637L3.04837 13.9134L3.12467 13.6704L2.97286 13.4657L2.57132 13.7637ZM1.43569 17.3814L0.958644 17.2317L0.665918 18.1642L1.59341 17.8559L1.43569 17.3814ZM5.30057 16.0967L5.53214 15.6535L5.34414 15.5553L5.14285 15.6222L5.30057 16.0967ZM16.502 9.00099C16.502 13.1437 13.1437 16.502 9.00099 16.502V17.502C13.696 17.502 17.502 13.696 17.502 9.00099H16.502ZM9.00099 1.5C13.1437 1.5 16.502 4.85831 16.502 9.00099H17.502C17.502 4.30602 13.696 0.5 9.00099 0.5V1.5ZM1.5 9.00099C1.5 4.85831 4.85831 1.5 9.00099 1.5V0.5C4.30602 0.5 0.5 4.30602 0.5 9.00099H1.5ZM2.97286 13.4657C2.04732 12.2183 1.5 10.6743 1.5 9.00099H0.5C0.5 10.8961 1.12072 12.6477 2.16977 14.0616L2.97286 13.4657ZM1.91274 17.5312L3.04837 13.9134L2.09427 13.6139L0.958644 17.2317L1.91274 17.5312ZM5.14285 15.6222L1.27797 16.9069L1.59341 17.8559L5.45829 16.5712L5.14285 15.6222ZM9.00099 16.502C7.74845 16.502 6.56899 16.1954 5.53214 15.6535L5.069 16.5398C6.24538 17.1546 7.58335 17.502 9.00099 17.502V16.502Z" fill="#50575B"/>
</svg>
